<?xml version="1.0" encoding="UTF-8"?>
<svg xmlns="http://www.w3.org/2000/svg" xmlns:xlink="http://www.w3.org/1999/xlink" width="24pt" height="24pt" viewBox="0 0 24 24" version="1.1">
<g id="surface1">
<path style=" stroke:none;fill-rule:nonzero;fill:rgb(0%,0%,0%);fill-opacity:1;" d="M 10.125 0 L 13.875 0 C 14.5 0 15 0.5 15 1.125 L 15 9 L 19.109375 9 C 19.945312 9 20.363281 10.007812 19.773438 10.597656 L 12.640625 17.734375 C 12.289062 18.085938 11.714844 18.085938 11.363281 17.734375 L 4.222656 10.597656 C 3.632812 10.007812 4.050781 9 4.882812 9 L 9 9 L 9 1.125 C 9 0.5 9.5 0 10.125 0 Z M 24 17.625 L 24 22.875 C 24 23.5 23.5 24 22.875 24 L 1.125 24 C 0.5 24 0 23.5 0 22.875 L 0 17.625 C 0 17 0.5 16.5 1.125 16.5 L 8 16.5 L 10.296875 18.796875 C 11.242188 19.738281 12.757812 19.738281 13.703125 18.796875 L 16 16.5 L 22.875 16.5 C 23.5 16.5 24 17 24 17.625 Z M 18.1875 21.75 C 18.1875 21.234375 17.765625 20.8125 17.25 20.8125 C 16.734375 20.8125 16.3125 21.234375 16.3125 21.75 C 16.3125 22.265625 16.734375 22.6875 17.25 22.6875 C 17.765625 22.6875 18.1875 22.265625 18.1875 21.75 Z M 21.1875 21.75 C 21.1875 21.234375 20.765625 20.8125 20.25 20.8125 C 19.734375 20.8125 19.3125 21.234375 19.3125 21.75 C 19.3125 22.265625 19.734375 22.6875 20.25 22.6875 C 20.765625 22.6875 21.1875 22.265625 21.1875 21.75 Z M 21.1875 21.75 "/>
</g>
</svg>
